<?xml version="1.0" encoding="iso-8859-1"?>
<!-- Generator: Adobe Illustrator 16.0.0, SVG Export Plug-In . SVG Version: 6.00 Build 0)  -->
<!DOCTYPE svg PUBLIC "-//W3C//DTD SVG 1.1//EN" "http://www.w3.org/Graphics/SVG/1.1/DTD/svg11.dtd">
<svg version="1.1" id="Capa_1" xmlns="http://www.w3.org/2000/svg" xmlns:xlink="http://www.w3.org/1999/xlink" x="0px" y="0px"
	 width="45.896px" height="45.896px" viewBox="0 0 45.896 45.896" style="enable-background:new 0 0 45.896 45.896;fill:#999;"
	 xml:space="preserve">
<g>
	<g>
		<g>
			<path d="M45.305,6.401c-0.803-1.219-2.162-1.869-3.574-1.735L24.385,6.318c-0.468,0.045-0.906,0.171-1.306,0.364
				c-0.076,0.037-0.16,0.037-0.236,0c-0.4-0.193-0.839-0.319-1.308-0.364L4.186,4.665C2.756,4.53,1.371,5.197,0.577,6.446
				C0.157,7.107,0,7.9,0,8.681v27.09c0,1.982,1.488,3.619,3.462,3.809l17.349,1.651c0.122,0.012,0.242,0.018,0.362,0.018
				c0.585,0,1.153-0.134,1.669-0.385c0.077-0.037,0.164-0.037,0.241,0c0.515,0.25,1.084,0.384,1.668,0.384
				c0.12,0,0.242-0.006,0.362-0.018l17.336-1.651c1.973-0.189,3.447-1.826,3.447-3.809V8.59C45.896,7.82,45.729,7.043,45.305,6.401z
				 M4.074,35.276V9.071c0-0.175,0.151-0.313,0.326-0.296l16.271,1.55c0.153,0.014,0.27,0.143,0.27,0.296v26.203
				c0,0.176-0.151,0.313-0.326,0.297l-16.272-1.55C4.19,35.557,4.074,35.429,4.074,35.276z M41.611,35.571l-16.271,1.55
				c-0.175,0.017-0.326-0.121-0.326-0.297V10.622c0-0.153,0.117-0.282,0.27-0.296l16.271-1.551c0.176-0.017,0.326,0.121,0.326,0.296
				v26.205C41.881,35.429,41.764,35.557,41.611,35.571z"/>
		</g>
		<g>
			<path d="M18.153,28.989c-0.053,0-0.106-0.002-0.16-0.008L6.607,27.773c-0.824-0.087-1.421-0.826-1.333-1.649
				c0.088-0.824,0.835-1.423,1.65-1.333l11.385,1.208c0.824,0.087,1.421,0.825,1.333,1.649
				C19.561,28.418,18.91,28.989,18.153,28.989z"/>
		</g>
		<g>
			<path d="M18.153,22.128c-0.053,0-0.106-0.002-0.16-0.008l-2.608-0.277c-0.824-0.087-1.421-0.826-1.333-1.65
				c0.088-0.824,0.833-1.419,1.65-1.333l2.608,0.277c0.824,0.087,1.421,0.826,1.333,1.65C19.561,21.556,18.91,22.128,18.153,22.128z
				"/>
		</g>
		<g>
			<path d="M18.153,16.197c-0.053,0-0.106-0.002-0.16-0.008l-2.608-0.277c-0.824-0.087-1.421-0.826-1.333-1.65
				c0.088-0.824,0.833-1.422,1.65-1.333l2.608,0.277c0.824,0.087,1.421,0.826,1.333,1.65C19.561,15.625,18.91,16.197,18.153,16.197z
				"/>
		</g>
		<g>
			<path d="M18.153,34.92c-0.053,0-0.106-0.002-0.16-0.008L6.607,33.704c-0.824-0.088-1.421-0.826-1.333-1.65
				c0.087-0.824,0.835-1.419,1.65-1.333l11.385,1.208c0.824,0.087,1.421,0.826,1.333,1.65C19.561,34.348,18.91,34.92,18.153,34.92z"
				/>
		</g>
		<g>
			<path d="M27.613,28.989c-0.756,0-1.407-0.571-1.489-1.342c-0.087-0.824,0.51-1.562,1.333-1.649l11.385-1.208
				c0.812-0.095,1.562,0.509,1.65,1.333c0.087,0.823-0.51,1.562-1.333,1.649L27.773,28.98
				C27.721,28.987,27.667,28.989,27.613,28.989z"/>
		</g>
		<g>
			<path d="M27.613,34.92c-0.756,0-1.407-0.572-1.489-1.342c-0.087-0.824,0.51-1.563,1.333-1.65l11.385-1.208
				c0.812-0.091,1.562,0.509,1.65,1.333c0.087,0.824-0.51,1.562-1.333,1.65l-11.386,1.208C27.721,34.917,27.667,34.92,27.613,34.92z
				"/>
		</g>
		<g>
			<path d="M27.613,17.267c-0.756,0-1.407-0.572-1.489-1.342c-0.087-0.824,0.51-1.563,1.333-1.65l11.385-1.208
				c0.812-0.092,1.562,0.509,1.65,1.333c0.087,0.824-0.51,1.563-1.333,1.65l-11.386,1.208
				C27.721,17.264,27.667,17.267,27.613,17.267z"/>
		</g>
		<g>
			<path d="M27.613,23.197c-0.756,0-1.407-0.572-1.489-1.342c-0.087-0.824,0.51-1.563,1.333-1.65l11.385-1.208
				c0.812-0.095,1.562,0.509,1.65,1.333c0.087,0.824-0.51,1.563-1.333,1.65l-11.386,1.208
				C27.721,23.195,27.667,23.197,27.613,23.197z"/>
		</g>
		<g>
			<path d="M10.946,22.342l-3.87-0.367c-0.858-0.081-1.515-0.802-1.515-1.665v-6.942c0-0.986,0.849-1.758,1.83-1.665l3.87,0.367
				c0.859,0.081,1.515,0.802,1.515,1.665v6.942C12.775,21.663,11.927,22.435,10.946,22.342z"/>
		</g>
	</g>
</g>
<g>
</g>
<g>
</g>
<g>
</g>
<g>
</g>
<g>
</g>
<g>
</g>
<g>
</g>
<g>
</g>
<g>
</g>
<g>
</g>
<g>
</g>
<g>
</g>
<g>
</g>
<g>
</g>
<g>
</g>
</svg>
